HIERARCHY
ROOT Hips
{
	OFFSET 0.0000 0.0000 0.0000
	CHANNELS 6 Xposition Yposition Zposition Zrotation Xrotation Yrotation
	JOINT Ab
	{
		OFFSET -0.0000 8.1305 -0.0000
		CHANNELS 3 Zrotation Xrotation Yrotation
		JOINT Chest
		{
			OFFSET -0.0000 26.2902 -0.0000
			CHANNELS 3 Zrotation Xrotation Yrotation
			JOINT Neck
			{
				OFFSET -0.0000 26.2902 0.0000
				CHANNELS 3 Zrotation Xrotation Yrotation
				JOINT Head
				{
					OFFSET -0.0000 10.8167 0.0000
					CHANNELS 3 Zrotation Xrotation Yrotation
					End Site
					{
						OFFSET -0.0000 16.7167 0.0000
					}
				}
			}
			JOINT LeftCollar
			{
				OFFSET -0.0000 26.2902 0.0000
				CHANNELS 3 Zrotation Xrotation Yrotation
				JOINT LeftShoulder
				{
					OFFSET 19.6667 -0.0000 0.0000
					CHANNELS 3 Zrotation Xrotation Yrotation
					JOINT LeftElbow
					{
						OFFSET 27.2190 0.0000 0.0000
						CHANNELS 3 Zrotation Xrotation Yrotation
						JOINT LeftWrist
						{
							OFFSET 30.7431 0.0000 0.0000
							CHANNELS 3 Zrotation Xrotation Yrotation
							End Site
							{
								OFFSET 0.0000 -14.7500 0.0000
							}
						}
					}
				}
			}
			JOINT RightCollar
			{
				OFFSET -0.0000 26.2902 0.0000
				CHANNELS 3 Zrotation Xrotation Yrotation
				JOINT RightShoulder
				{
					OFFSET -19.6667 0.0000 0.0000
					CHANNELS 3 Zrotation Xrotation Yrotation
					JOINT RightElbow
					{
						OFFSET -27.2190 0.0000 0.0000
						CHANNELS 3 Zrotation Xrotation Yrotation
						JOINT RightWrist
						{
							OFFSET -30.7431 0.0000 0.0000
							CHANNELS 3 Zrotation Xrotation Yrotation
							End Site
							{
								OFFSET -0.0000 -14.7500 0.0000
							}
						}
					}
				}
			}
		}
	}
	JOINT LeftHip
	{
		OFFSET 11.8000 0.0000 0.0000
		CHANNELS 3 Zrotation Xrotation Yrotation
		JOINT LeftKnee
		{
			OFFSET -0.0000 -39.7832 0.0000
			CHANNELS 3 Zrotation Xrotation Yrotation
			JOINT LeftAnkle
			{
				OFFSET -0.0000 -41.7317 0.0000
				CHANNELS 3 Zrotation Xrotation Yrotation
				End Site
				{
					OFFSET -0.0000 -4.9167 16.7167
				}
			}
		}
	}
	JOINT RightHip
	{
		OFFSET -11.8000 0.0000 0.0000
		CHANNELS 3 Zrotation Xrotation Yrotation
		JOINT RightKnee
		{
			OFFSET -0.0000 -39.7832 0.0000
			CHANNELS 3 Zrotation Xrotation Yrotation
			JOINT RightAnkle
			{
				OFFSET -0.0000 -41.7317 0.0000
				CHANNELS 3 Zrotation Xrotation Yrotation
				End Site
				{
					OFFSET -0.0000 -4.9167 16.7167
				}
			}
		}
	}
}
MOTION
Frames: 13
Frame Time: 0.010000
-9.3924 84.4657 87.3756 353.3495 344.1999 197.5726 0.6576 348.8602 357.2095 359.6544 21.7567 357.2150 344.0514 345.2740 351.3713 2.6319 9.7511 353.2067 337.9778 357.1451 14.4401 342.3674 58.0114 316.0637 22.6944 342.4332 285.0863 100.0003 348.1717 0.7027 23.6258 356.0403 341.7726 54.7737 43.7059 357.7247 324.1331 331.2860 75.1650 261.4071 346.0292 339.0542 356.5921 10.0018 2.2982 357.9815 8.9232 2.1640 344.6849 341.3281 8.8588 326.5938 317.0994 353.9516 25.2472 40.9737 7.7729 353.0117 344.9092 310.5927 
-9.1212 84.3727 86.6790 353.4368 344.1641 197.6517 0.9959 348.9362 357.3040 359.7901 22.0537 357.2544 343.7624 345.5896 351.2054 2.9964 8.8441 353.0254 338.0312 357.1551 14.5513 342.6295 58.3949 315.3482 22.9931 342.3955 286.0763 99.8139 347.8394 0.2807 24.0210 356.0062 342.0087 53.9889 44.3520 358.4112 323.4425 331.3188 73.6457 261.3876 345.5866 338.7872 356.9086 10.0118 2.5396 358.1193 9.5060 1.7764 343.9937 341.5457 9.0793 326.7362 316.6836 354.0028 26.0521 42.0942 7.2522 352.4200 344.9121 310.5942 
-8.8684 84.3443 86.0536 353.5774 343.8782 197.7830 1.3424 348.7725 357.3582 359.9158 22.3874 357.2459 344.0330 345.3077 351.1761 2.5164 8.7728 353.0393 338.1339 357.1551 14.6434 343.0513 58.8401 314.3942 23.3932 342.2882 286.9784 99.9587 347.8776 0.5944 24.2907 355.9920 342.1627 53.2187 45.1198 359.3481 322.5002 331.2966 71.8896 261.4711 345.4730 338.4887 357.1201 9.5557 2.5601 358.3102 10.3764 1.5494 343.5298 341.7375 9.5495 326.8296 316.1847 353.7904 26.4833 43.0046 6.2857 352.1634 344.5395 310.9423 
-8.6045 84.3385 85.4277 353.7807 343.5591 197.9540 1.6697 348.5604 357.3984 0.1278 22.6788 357.2063 344.3524 345.0105 351.1766 1.9570 8.7945 353.0827 338.1746 357.1407 14.6739 343.2350 59.1737 313.7842 23.6734 342.2847 287.6873 100.2496 347.9277 0.8807 24.5181 355.9847 342.2740 52.3780 46.0010 0.4046 321.4657 331.2847 70.0118 261.5272 345.3816 338.1973 357.3804 8.9754 2.5962 358.5155 11.3701 1.2985 343.0153 341.9631 9.9897 327.0313 315.7143 353.6667 26.8729 43.7382 5.0858 351.9220 344.2335 311.4545 
-8.3583 84.3660 84.7707 353.9008 343.3169 198.0741 1.9000 348.4250 357.4337 0.3354 22.8913 357.1758 344.1986 345.0988 351.0883 2.2587 8.4868 352.9915 338.1872 357.1588 14.6719 343.0454 59.3922 313.7283 23.9033 342.1937 288.1134 99.7326 347.7974 0.7713 24.6782 356.0054 342.4069 51.5218 46.7828 1.5527 320.5037 331.4726 68.1266 261.2764 345.4525 337.8342 357.6081 8.4695 2.6514 358.6277 12.3834 1.2787 342.3603 342.3577 10.0274 327.3716 315.4285 353.4578 26.8392 44.5539 4.9095 351.4222 344.0309 311.4847 
-8.1121 84.4071 84.0874 353.9682 343.1645 198.1596 2.0467 348.3702 357.4750 0.5872 23.0591 357.1516 343.9841 345.3658 351.0025 2.7179 8.1142 352.8765 338.2533 357.1747 14.6954 342.8277 59.7326 313.6579 24.2484 342.0089 288.5043 99.4502 347.7619 1.0557 24.8231 356.0330 342.5789 50.7063 47.5706 2.6071 319.4779 331.6000 66.2449 260.7824 345.7361 337.4881 357.8410 8.0410 2.6848 358.6907 13.4000 1.3861 341.8562 342.8472 10.0460 327.8701 315.3629 353.7065 26.9433 45.0264 4.5604 350.9229 343.7775 311.4224 
-7.8721 84.4866 83.3853 353.9535 343.0907 198.2190 2.0720 348.4293 357.5298 0.9027 23.1291 357.1432 343.8600 345.7780 350.9654 3.1256 7.6921 352.7844 338.3333 357.1811 14.7156 342.5090 60.1076 313.7442 24.5660 341.7975 288.7254 99.6345 347.6471 1.7189 24.9351 356.0623 342.7514 49.9507 48.3951 3.4996 318.3554 331.6757 64.4047 260.1243 346.2141 337.2770 358.0344 7.6674 2.6497 358.6872 14.4555 1.9570 341.3320 343.5555 9.7652 328.4049 315.5196 353.7185 26.7016 45.5256 5.1849 350.4022 343.4401 310.9255 
-7.6604 84.6058 82.7172 353.9186 342.9833 198.3684 2.1529 348.4643 357.5376 1.0603 23.1803 357.1077 344.0005 345.9799 350.9158 3.1813 7.5803 352.6815 338.6106 357.2251 14.7618 342.8316 60.9092 312.9750 25.3579 341.1688 289.3432 99.4442 347.3986 2.0397 25.1220 356.0759 342.9527 49.2677 48.8841 4.2287 317.2604 331.8202 62.7400 259.8350 346.3501 336.4861 358.1445 7.1462 2.5587 358.8100 15.7320 2.1296 341.0002 344.1627 9.7809 328.7896 315.8156 353.5408 26.3628 45.8978 5.8900 349.9628 343.0178 310.4926 
-7.4821 84.7487 82.0492 353.8390 342.8813 198.5558 2.2462 348.4749 357.5218 1.1263 23.2570 357.0613 344.2714 346.0609 350.8524 3.0478 7.6314 352.5692 338.9629 357.2759 14.8149 343.4675 61.8574 311.8584 26.2964 340.4336 290.0333 99.4146 347.1767 2.4959 25.3344 356.0649 343.1516 48.6479 49.1527 4.8566 316.2392 332.0272 61.2294 259.7162 346.3003 335.5106 358.1698 6.6018 2.4147 358.9133 16.9941 2.4397 341.0160 344.8827 9.9855 329.0670 316.2628 353.3201 26.0372 46.1136 6.5789 349.5467 342.6025 310.1211 
-7.1969 84.8956 81.3572 353.9866 342.9211 198.8721 2.2916 348.7006 357.5099 1.5142 23.0429 356.9753 344.2648 346.3295 350.8054 3.1795 7.5692 352.4851 339.2259 357.2977 14.9604 343.4627 62.4275 311.5459 26.9644 340.1284 290.0848 99.7254 347.3598 3.0963 25.1061 356.1334 343.0155 48.3293 50.0771 5.7441 315.0533 332.0818 59.5088 259.5211 346.3792 335.2151 358.5534 5.8672 2.5176 359.0090 18.6100 2.3234 341.1935 345.4701 10.4877 329.8042 316.8918 353.5127 25.7146 45.9757 6.9639 349.2167 342.3323 309.8084 
-6.9306 85.0466 80.6674 354.0806 342.9958 199.1112 2.2829 348.9498 357.5265 1.9291 22.8566 356.9210 344.1535 346.4975 350.7397 3.3328 7.5731 352.4040 339.3838 357.2903 15.1073 343.3318 62.8747 311.4480 27.4790 339.9233 289.9492 100.2679 347.5702 3.8099 24.8559 356.1844 342.8164 47.8611 51.2194 6.8228 313.7789 332.1230 57.6707 259.3716 346.4154 334.8719 358.8869 5.3322 2.5641 359.0524 19.9978 2.2411 341.1412 345.9436 10.8193 330.5236 317.5389 353.7178 25.3821 45.8386 7.3635 348.8974 342.0776 309.5383 
-6.7239 85.2067 80.0324 353.9506 343.0056 199.1417 2.2168 349.1922 357.5908 2.0878 22.7234 356.9687 343.9422 346.4094 350.6712 3.5442 7.7946 352.3541 339.5308 357.2823 15.2826 342.5749 62.9011 311.9921 27.5288 340.0169 289.3171 100.8605 347.9860 4.4538 24.5901 356.2210 342.5988 47.2216 52.8176 8.1284 312.2499 332.0685 55.5751 259.4573 346.4440 334.5425 358.9396 4.9907 2.1947 358.6620 20.8022 3.0790 341.4280 346.5216 11.0621 330.9845 318.0637 354.0683 25.2332 45.7091 7.5823 348.5955 341.8224 309.3142 
-6.5197 85.3864 79.3655 353.6516 342.9504 199.0165 1.9660 349.4920 357.7149 2.2013 22.5955 357.1094 343.8178 346.3278 350.6251 3.7027 7.9487 352.3211 339.6830 357.2472 15.6216 341.9801 62.5848 312.4913 27.2038 340.3792 288.3585 101.6799 348.2953 5.1597 24.2100 356.2857 342.5106 46.9379 53.8841 9.1011 310.7852 332.2365 53.9510 259.0372 346.7745 333.4749 358.6194 4.3339 1.9940 358.6868 22.0340 3.5167 341.1798 346.8963 11.4109 331.3689 318.4969 354.6896 25.1922 45.6057 7.7858 348.2552 341.6288 308.9606 
